Coordinates
version=1
nRows=12
nColumns=42
inDegrees=yes

Units are S.I. units (second, meters, Newtons, ...)
If the header above contains a line with 'inDegrees', this indicates whether rotational values are in degrees (yes) or radians (no).

endheader
time	pelvis_tilt	pelvis_list	pelvis_rotation	pelvis_tx	pelvis_ty	pelvis_tz	hip_flexion_r	hip_adduction_r	hip_rotation_r	knee_angle_r	knee_adduction_r	knee_angle_r_beta	ankle_angle_r	subtalar_angle_r	mtp_angle_r	hip_flexion_l	hip_adduction_l	hip_rotation_l	knee_angle_l	knee_adduction_l	knee_angle_l_beta	ankle_angle_l	subtalar_angle_l	mtp_angle_l	lumbar_extension	lumbar_bending	lumbar_rotation	arm_flex_r	arm_add_r	arm_rot_r	elbow_flex_r	pro_sup_r	wrist_flex_r	wrist_dev_r	arm_flex_l	arm_add_l	arm_rot_l	elbow_flex_l	pro_sup_l	wrist_flex_l	wrist_dev_l
      1.07000000	     14.59904623	      5.05146330	      0.09293579	     -0.23063244	      0.93710832	     -0.27636348	     13.04832392	     -3.13380058	     -1.37274528	     37.16739809	     -0.33464453	      0.64869347	      7.31733064	    -11.73718230	     -7.73913921	    -17.45067650	     13.80871857	    -19.64130908	     11.34706365	     -6.33343152	      0.19804362	     21.41112068	     21.84052457	     -7.73913921	    -45.34809226	     -7.26888997	     -2.31947739	      1.98171229	     -8.43070326	      9.17280176	     39.91420842	     90.00000001	      0.00000000	      0.00000000	     -4.45151948	    -13.93679649	     17.62127932	     47.73495703	     90.00000001	      0.00000000	      0.00000000
      1.08000000	     14.49380141	      5.18393620	     -0.27759302	     -0.22503542	      0.93590821	     -0.27589391	     13.45040371	     -3.03660925	     -1.50433871	     35.00973075	     -0.50536467	      0.61103507	      7.62623613	    -10.84625875	     -7.73438834	    -18.00369968	     14.17160518	    -19.71229043	     10.79011131	     -6.35146379	      0.18832297	     21.54314447	     21.88798859	     -7.73438834	    -45.17172268	     -7.54980967	     -2.13157711	      1.95456501	     -8.42025706	      9.14654108	     39.87052675	     90.00000001	      0.00000000	      0.00000000	     -4.53536180	    -13.94885510	     17.67426707	     47.57782502	     90.00000001	      0.00000000	      0.00000000
      1.09000000	     14.20690549	      5.51044376	     -0.66696563	     -0.21948923	      0.93403615	     -0.27546664	     14.39753631	     -3.33007466	     -2.11267067	     33.61540451	     -0.58225991	      0.58669949	      7.77059056	    -10.64090847	     -7.73255641	    -18.16140882	     14.62820425	    -20.01541535	     10.65325380	     -6.20975644	      0.18593435	     21.68462796	     21.72787303	     -7.73255641	    -44.80209597	     -8.02899722	     -2.04744706	      1.86291296	     -8.38254741	      9.15242957	     39.94960242	     90.00000001	      0.00000000	      0.00000000	     -4.68909486	    -13.98515237	     17.67725126	     47.56997294	     90.00000001	      0.00000000	      0.00000000
      1.10000000	     14.67475368	      5.31276886	     -0.85150187	     -0.21308748	      0.93412199	     -0.27493739	     13.48831638	     -2.68221497	     -3.08718228	     30.49794822	     -1.45551897	      0.53228961	      8.84775762	     -7.27519815	     -7.72371687	    -19.76117618	     14.52064481	    -19.77057345	      9.51570561	     -5.98813381	      0.16608039	     21.58722390	     22.02514918	     -7.72371687	    -45.17008957	     -7.86614536	     -1.79160356	      1.77868730	     -8.40342173	      9.07200455	     40.03470214	     90.00000001	      0.00000000	      0.00000000	     -4.73847004	    -13.99285117	     17.81539656	     47.40745531	     90.00000001	      0.00000000	      0.00000000
      1.11000000	     14.32463248	      5.62189232	     -1.24956131	     -0.20751676	      0.93207298	     -0.27440833	     14.30395189	     -2.76869389	     -3.50729576	     28.93441301	     -1.75460072	      0.50500077	      9.05817974	     -6.63181622	     -7.72158424	    -19.86100605	     15.11234358	    -19.91984742	      9.23512222	     -6.13685303	      0.16118329	     21.82166333	     21.97528821	     -7.72158424	    -44.73871447	     -8.33104688	     -1.68601518	      1.71887981	     -8.35909947	      9.10081311	     40.02716175	     90.00000001	      0.00000000	      0.00000000	     -4.82894102	    -14.05217511	     17.84696572	     47.33660005	     90.00000001	      0.00000000	      0.00000000
      1.12000000	     14.51452451	      5.73818876	     -1.44077286	     -0.20097706	      0.93104238	     -0.27420383	     14.25480289	     -2.80187970	     -5.84381904	     27.10538851	     -2.67303716	      0.47307827	     10.84778455	     -1.21189557	     -7.70303095	    -20.98411756	     15.39581968	    -19.51212386	      8.45601436	     -6.00786668	      0.14758529	     21.81362787	     21.87739255	     -7.70303095	    -44.77804858	     -8.43743090	     -1.57248610	      1.57588311	     -8.37079177	      9.07643248	     40.00699043	     90.00000001	      0.00000000	      0.00000000	     -4.93183371	    -14.10671539	     18.01074424	     47.22048350	     90.00000001	      0.00000000	      0.00000000
      1.13000000	     14.29374746	      5.94815471	     -1.81541408	     -0.19515554	      0.92920263	     -0.27359858	     14.70852163	     -2.70224266	     -6.18053842	     25.51901088	     -2.98487073	      0.44539076	     11.05753155	     -0.46186504	     -7.70125357	    -21.28008546	     15.87289018	    -19.56451662	      8.13011705	     -6.14273670	      0.14189731	     22.01668501	     21.89524390	     -7.70125357	    -44.45788565	     -8.77545304	     -1.38843096	      1.51386881	     -8.35069239	      9.06520527	     39.95675161	     90.00000001	      0.00000000	      0.00000000	     -4.97857298	    -14.13829965	     18.07014405	     47.09485302	     90.00000001	      0.00000000	      0.00000000
      1.14000000	     14.39243648	      6.09699467	     -1.98257844	     -0.18856324	      0.92790725	     -0.27338780	     14.80207156	     -2.81732159	     -8.49544990	     24.16129387	     -3.65695623	      0.42169413	     12.31348798	      3.99554805	     -7.68534743	    -22.21149487	     16.14434882	    -19.12280754	      7.56594598	     -5.96395212	      0.13205067	     22.04661640	     21.50165974	     -7.68534743	    -44.41508632	     -8.89046592	     -1.30398738	      1.36334534	     -8.33372141	      8.98801784	     39.95809642	     90.00000001	      0.00000000	      0.00000000	     -5.07575524	    -14.18896396	     18.24041247	     47.00820088	     90.00000001	      0.00000000	      0.00000000
      1.15000000	     14.31071186	      6.28511333	     -2.20749747	     -0.18221233	      0.92625935	     -0.27303735	     15.09332674	     -2.85431438	     -9.96536497	     23.02221601	     -4.15543097	      0.40181347	     13.01321848	      6.49576552	     -7.67056410	    -22.78392212	     16.53517473	    -18.73720378	      7.18561867	     -5.99672302	      0.12541270	     22.11504341	     21.08722043	     -7.67056410	    -44.20454441	     -9.08471334	     -1.17953926	      1.24099912	     -8.31890621	      8.93080217	     39.91028003	     90.00000001	      0.00000000	      0.00000000	     -5.12992107	    -14.23632604	     18.35162540	     46.90739123	     90.00000001	      0.00000000	      0.00000000
      1.16000000	     14.26473831	      6.42372112	     -2.38525595	     -0.17572088	      0.92472588	     -0.27268568	     15.23749174	     -2.82351393	    -11.26632867	     21.96687961	     -4.57070787	      0.38339438	     13.50907435	      8.50808264	     -7.66101296	    -23.37853469	     16.81791305	    -18.38964238	      6.88504558	     -5.98127573	      0.12016671	     22.19986295	     20.69215145	     -7.66101296	    -44.02557320	     -9.19998895	     -1.05568047	      1.11334085	     -8.30391743	      8.86427061	     39.86846084	     90.00000001	      0.00000000	      0.00000000	     -5.18884330	    -14.27768572	     18.47225408	     46.79951298	     90.00000001	      0.00000000	      0.00000000
      1.17000000	     14.12420407	      6.64382760	     -2.65786480	     -0.16935287	      0.92295109	     -0.27222580	     15.53641770	     -2.87019479	    -11.74661372	     21.31356017	     -4.66103506	      0.37199180	     13.63395010	      8.58128743	     -7.66076650	    -23.73039000	     17.19630819	    -18.45617822	      6.75235660	     -6.00595241	      0.11785085	     22.38069056	     20.67603430	     -7.66076650	    -43.76805208	     -9.44967094	     -0.90585852	      1.00737333	     -8.30596481	      8.88444246	     39.78255273	     90.00000001	      0.00000000	      0.00000000	     -5.21541298	    -14.29321322	     18.49435826	     46.71907944	     90.00000001	      0.00000000	      0.00000000
      1.18000000	     14.10350840	      6.77845838	     -2.59382050	     -0.16236750	      0.92155298	     -0.27232736	     15.60359188	     -3.00483909	    -14.02628382	     20.67964833	     -5.27759805	      0.36092795	     14.54882753	     12.56924194	     -7.64864744	    -24.51098303	     17.46675132	    -17.30516288	      6.33492055	     -6.05566519	      0.11056522	     22.37416225	     19.68295714	     -7.64864744	    -43.59347951	     -9.39187076	     -0.91982615	      0.85920878	     -8.26439091	      8.79017002	     39.64929082	     90.00000001	      0.00000000	      0.00000000	     -5.27389506	    -14.33207223	     18.72163416	     46.49919306	     90.00000001	      0.00000000	      0.00000000
